<svg width="36" height="24" viewBox="0 0 36 24" fill="none" xmlns="http://www.w3.org/2000/svg">
<rect width="36" height="24" rx="3" fill="#E7E7E7"/>
<path fill-rule="evenodd" clip-rule="evenodd" d="M8.50902 8.25534C7.26603 8.37289 6.2587 9.03103 5.64691 10.0469C5.24935 10.707 5.06248 11.489 5.12011 12.2916C5.26112 14.255 6.94844 15.9174 9.10814 15.7462C11.0459 15.5926 12.6447 13.8495 12.4809 11.7055C12.4209 10.9205 12.1481 10.2736 11.7108 9.68945C11.5128 9.42497 11.4737 9.42066 11.2669 9.20413C11.0105 8.93554 10.4683 8.62721 10.1222 8.49079C9.65819 8.30781 9.06735 8.20251 8.50902 8.25534Z" fill="#108DE8"/>
<path fill-rule="evenodd" clip-rule="evenodd" d="M6.66334 10.9048C6.61622 11.0408 6.64427 12.5537 6.64427 12.8344C6.64427 13.138 6.58435 13.2328 7.0593 13.3952C8.31684 13.8253 9.56206 12.3671 10.8125 13.0885C10.8705 13.1219 10.9411 13.1905 10.9576 13.0798L10.9581 11.1335C10.9582 10.9242 10.9769 10.8586 10.838 10.7619C9.71908 9.98241 8.50754 11.3157 7.37215 11.1662C6.95197 11.1108 6.77797 10.8965 6.66334 10.9048Z" fill="white"/>
<path fill-rule="evenodd" clip-rule="evenodd" d="M15.3026 13.9051C15.7927 13.9401 16.3637 13.56 16.565 13.3423C17.2638 12.5859 17.2807 11.4916 16.5771 10.6996C16.3152 10.4047 15.7019 10.0788 15.3106 10.1244L13.8978 10.1255L13.8975 13.9004L15.3026 13.9051ZM14.6911 13.0872C14.7952 13.1053 15.2226 13.0985 15.34 13.0877C16.3051 12.9995 16.646 11.6799 15.8346 11.1271C15.7 11.0353 15.5501 10.9621 15.3535 10.9403C15.2458 10.9282 14.7859 10.9208 14.6906 10.938L14.6911 13.0872Z" fill="#108DE8"/>
<path fill-rule="evenodd" clip-rule="evenodd" d="M27.6772 13.9121L28.4808 13.9117L28.4817 13.0981L30.0763 13.0984L30.0809 13.9118L30.8842 13.9119C30.8847 13.4598 30.8844 13.0113 30.8844 12.5629C30.8844 12.1589 30.9184 11.6532 30.8187 11.2867C30.6501 10.6665 30.0603 10.1165 29.2841 10.1134C28.4996 10.1104 27.9301 10.6588 27.7483 11.27C27.6407 11.6317 27.6767 12.1503 27.6767 12.5485C27.6767 13.0023 27.672 13.4585 27.6772 13.9121ZM28.4816 12.2795L30.0802 12.2802C30.0841 11.9312 30.1216 11.5921 29.965 11.3247C29.8529 11.1334 29.6166 10.9332 29.2846 10.9318C28.9459 10.9305 28.72 11.1226 28.5992 11.3208C28.4409 11.5807 28.4766 11.9385 28.4816 12.2795Z" fill="#108DE8"/>
<path fill-rule="evenodd" clip-rule="evenodd" d="M18.4853 13.9112L19.2861 13.9119C19.2866 13.7421 19.2646 13.2216 19.2939 13.0982L20.8824 13.0984L20.8881 13.9114L21.69 13.9121C21.6858 13.4613 21.6897 13.0112 21.6897 12.5629C21.6897 12.1783 21.7253 11.6273 21.6245 11.2863C21.1656 9.73347 19.029 9.72248 18.5548 11.2708C18.4474 11.6215 18.4841 12.1581 18.4841 12.5486C18.4841 12.9993 18.4738 13.4621 18.4853 13.9112ZM19.2866 12.2795L20.8873 12.2804C20.8906 11.9365 20.9282 11.5909 20.7712 11.324C20.4839 10.8357 19.7532 10.7654 19.4056 11.3217C19.2467 11.576 19.2814 11.9447 19.2866 12.2795Z" fill="#108DE8"/>
<path fill-rule="evenodd" clip-rule="evenodd" d="M23.0995 11.5988L23.0886 12.1627C23.0886 12.6355 23.0651 13.5175 23.0903 13.901L23.8756 13.9015C23.8939 13.6326 23.8472 11.7139 23.897 11.6528C23.8972 11.28 24.2859 10.9333 24.6791 10.9318C24.9206 10.9309 25.0967 11.0292 25.2249 11.1458C25.325 11.237 25.478 11.4445 25.4751 11.6548C25.5119 11.6754 25.4828 13.6768 25.4944 13.9009L26.2806 13.9015L26.2743 11.6103C26.294 11.4308 26.1859 11.1533 26.1166 11.0124C25.5346 9.82942 23.864 9.81376 23.2654 10.992C23.1953 11.1302 23.083 11.4152 23.0995 11.5988Z" fill="#108DE8"/>
<path fill-rule="evenodd" clip-rule="evenodd" d="M15.3026 13.9051L13.8975 13.9004L13.8978 10.1255L15.3107 10.1244C15.285 10.0884 14.6955 10.1099 14.6129 10.1099C14.4074 10.1099 14.0829 10.0906 13.8919 10.113C13.8738 10.1731 13.8664 13.8155 13.8906 13.9136C14.0207 13.9304 14.9273 13.9174 15.2139 13.9181L15.2927 13.9098C15.2952 13.9091 15.2993 13.9067 15.3026 13.9051Z" fill="#79BBE7"/>
<path fill-rule="evenodd" clip-rule="evenodd" d="M25.4756 11.6548C25.484 11.9636 25.4589 13.8037 25.4877 13.9141L26.2882 13.9175C26.3091 13.8291 26.2962 12.3943 26.2962 12.177C26.2962 12.0732 26.3241 11.6653 26.2748 11.6104L26.2811 13.9015L25.4948 13.901C25.4833 13.6769 25.5123 11.6755 25.4756 11.6548Z" fill="#79BBE7"/>
<path fill-rule="evenodd" clip-rule="evenodd" d="M23.8972 11.6529C23.8474 11.714 23.894 13.6327 23.8758 13.9015L23.0904 13.9011C23.0652 13.5176 23.0888 12.6356 23.0888 12.1628L23.0997 11.5989C23.055 11.6183 23.075 12.6233 23.075 12.7487C23.075 12.9314 23.0533 13.8098 23.0845 13.9145L23.8846 13.9174L23.8972 11.6529Z" fill="#79BBE7"/>
</svg>
